<?xml version="1.0" encoding="UTF-8"?>
<svg version="1.1" xmlns="http://www.w3.org/2000/svg" width="500" height="500">
<path d="M0 0 C165 0 330 0 500 0 C500 165 500 330 500 500 C335 500 170 500 0 500 C0 335 0 170 0 0 Z " fill="#FEFEFE" transform="translate(0,0)"/>
<path d="M0 0 C5.17460234 0.63132 9.35005073 3.8501022 13.73291016 6.52197266 C15.47827992 7.58227137 17.23731189 8.61655111 18.99902344 9.64941406 C20.10117187 10.31328125 21.20332031 10.97714844 22.33886719 11.66113281 C23.34916992 12.26860352 24.35947266 12.87607422 25.40039062 13.50195312 C27.72949219 15.33300781 27.72949219 15.33300781 28.61499023 17.44238281 C28.8306415 21.00315762 26.58463843 23.40974707 24.72949219 26.33300781 C23.65699219 26.20925781 22.58449219 26.08550781 21.47949219 25.95800781 C17.52364896 25.92006812 17.52364896 25.92006812 15.29199219 29.14550781 C13.50941358 32.19032351 13.50941358 32.19032351 13.72949219 35.33300781 C14.41011719 35.95175781 15.09074219 36.57050781 15.79199219 37.20800781 C17.72949219 39.33300781 17.72949219 39.33300781 17.72949219 41.70800781 C16.72949219 44.33300781 16.72949219 44.33300781 14.60449219 47.33300781 C12.47795503 50.09639907 12.47795503 50.09639907 12.86230469 52.82128906 C13.93178164 55.91891826 15.03830906 56.70302476 17.72949219 58.52050781 C31.08462754 68.38341284 41.27756793 83.98177643 44.29980469 100.43847656 C46.05746746 116.36929274 45.60953153 130.73380059 38.72949219 145.33300781 C38.28476562 146.34363281 37.84003906 147.35425781 37.38183594 148.39550781 C32.2550226 158.91818009 23.47951715 167.963364 13.72949219 174.33300781 C14.41856341 177.99244429 15.29770484 181.5574274 16.29199219 185.14550781 C16.56140625 186.12132812 16.83082031 187.09714844 17.10839844 188.10253906 C17.31335938 188.83859375 17.51832031 189.57464844 17.72949219 190.33300781 C18.633125 190.29820312 19.53675781 190.26339844 20.46777344 190.22753906 C21.64726562 190.20046875 22.82675781 190.17339844 24.04199219 190.14550781 C25.21375 190.11070312 26.38550781 190.07589844 27.59277344 190.04003906 C30.72949219 190.33300781 30.72949219 190.33300781 32.50683594 191.51269531 C35.75022997 196.34151838 37.76875637 202.09494941 37.66699219 207.89550781 C36.72949219 210.33300781 36.72949219 210.33300781 33.72949219 212.33300781 C31.58834839 212.58748341 31.58834839 212.58748341 29.06103516 212.59370422 C28.10203308 212.60078903 27.14303101 212.60787384 26.15496826 212.61517334 C25.10448303 212.61269592 24.0539978 212.61021851 22.97167969 212.60766602 C21.86415344 212.61277695 20.7566272 212.61788788 19.61553955 212.62315369 C15.94513586 212.63708341 12.27491921 212.63609051 8.60449219 212.63378906 C6.06005788 212.6376738 3.51562422 212.642008 0.97119141 212.64677429 C-4.36525847 212.65424355 -9.70163931 212.65407763 -15.03808594 212.64868164 C-21.20876618 212.64263814 -27.37921862 212.65496195 -33.54986 212.67625171 C-39.48456629 212.69597539 -45.41920181 212.69904353 -51.35394287 212.69551659 C-53.88019343 212.69603127 -56.40644753 212.70129645 -58.93267822 212.71132851 C-62.45953107 212.7236158 -65.98585148 212.71694757 -69.51269531 212.70532227 C-70.56318054 212.712966 -71.61366577 212.72060974 -72.69598389 212.72848511 C-73.65498596 212.72147079 -74.61398804 212.71445648 -75.60205078 212.70722961 C-76.43606415 212.70739736 -77.27007751 212.7075651 -78.12936401 212.70773792 C-80.80728701 212.23906395 -81.69938101 211.53150819 -83.27050781 209.33300781 C-83.45800781 205.64550781 -83.45800781 205.64550781 -83.27050781 202.33300781 C-83.94082031 202.25695312 -84.61113281 202.18089844 -85.30175781 202.10253906 C-103.59891833 197.35972245 -120.33975978 178.18992435 -129.54785156 162.57128906 C-131.27050781 159.33300781 -131.27050781 159.33300781 -131.27050781 157.33300781 C-133.16972527 158.94242642 -135.04332207 160.57169186 -136.89550781 162.23535156 C-138.47719448 163.63233468 -140.10377008 164.98008804 -141.77050781 166.27441406 C-146.45284712 170.22888973 -148.68629369 173.0354988 -149.2434082 179.31542969 C-149.37313811 182.32714311 -149.36972777 185.32068994 -149.27050781 188.33300781 C-148.64660156 188.46320313 -148.02269531 188.59339844 -147.37988281 188.72753906 C-145.27050781 189.33300781 -145.27050781 189.33300781 -143.52050781 191.02050781 C-141.83893987 194.13140852 -141.71064964 195.83389426 -142.27050781 199.33300781 C-144.10151714 202.25584122 -146.13698489 204.76624635 -149.27050781 206.33300781 C-153.1024262 206.75877652 -154.80000465 206.63622096 -158.08300781 204.52050781 C-160.9327785 201.67073713 -161.22058651 199.88214216 -161.58300781 195.89550781 C-161.27050781 192.33300781 -161.27050781 192.33300781 -159.39550781 189.89550781 C-157.27050781 188.33300781 -157.27050781 188.33300781 -155.27050781 188.33300781 C-155.4909375 187.32625 -155.71136719 186.31949219 -155.93847656 185.28222656 C-156.64925437 180.41743846 -156.96512647 176.02439703 -155.27050781 171.33300781 C-151.72400882 166.70293242 -147.3919806 162.92003768 -142.85327148 159.28295898 C-140.23459333 157.06614148 -138.13725328 155.21772174 -136.27050781 152.33300781 C-136.07640886 147.82461841 -136.98156802 144.74270576 -138.27050781 140.33300781 C-144.21050781 140.33300781 -150.15050781 140.33300781 -156.27050781 140.33300781 C-156.27050781 140.99300781 -156.27050781 141.65300781 -156.27050781 142.33300781 C-157.40870806 143.24472944 -158.58158582 144.11349576 -159.77050781 144.95800781 C-162.5216542 147.14005583 -162.5216542 147.14005583 -163.62988281 150.32910156 C-163.52391252 152.33118307 -163.39754623 154.33215267 -163.27050781 156.33300781 C-165.4093967 160.90245226 -165.4093967 160.90245226 -168.27050781 162.33300781 C-172.10665739 162.68820685 -174.41680415 162.88025375 -177.70800781 160.77050781 C-179.8744681 157.39082977 -179.83338783 155.27316794 -179.27050781 151.33300781 C-177.21359561 148.40586352 -175.88136654 147.49450882 -172.41894531 146.57910156 C-168.48752738 145.02311854 -167.12454517 143.00134917 -164.52050781 139.70800781 C-161.22844525 135.93718684 -158.6319103 134.04574701 -153.55566406 133.61035156 C-149.09313685 133.52699724 -144.70476636 133.85006876 -140.27050781 134.33300781 C-140.41488281 133.58535156 -140.55925781 132.83769531 -140.70800781 132.06738281 C-140.98644531 130.59011719 -140.98644531 130.59011719 -141.27050781 129.08300781 C-141.45613281 128.10847656 -141.64175781 127.13394531 -141.83300781 126.12988281 C-142.27050781 123.33300781 -142.27050781 123.33300781 -142.27050781 119.33300781 C-146.63101951 119.40187201 -150.99060179 119.4898297 -155.3503418 119.59545898 C-156.83330636 119.62870204 -158.31639725 119.65673605 -159.79956055 119.67944336 C-161.93235074 119.7130025 -164.06398393 119.76531419 -166.19628906 119.82128906 C-168.12081909 119.86056519 -168.12081909 119.86056519 -170.08422852 119.90063477 C-173.54813758 120.37068173 -174.08647989 120.82184596 -176.27050781 123.33300781 C-179.3639556 123.72582658 -181.31625986 123.96308886 -184.27050781 123.33300781 C-187.25252859 120.79829015 -188.10115852 119.14588442 -188.89550781 115.33300781 C-188.27050781 112.33300781 -188.27050781 112.33300781 -185.64550781 109.39550781 C-182.27050781 107.33300781 -182.27050781 107.33300781 -179.08300781 107.33300781 C-176.27050781 108.33300781 -176.27050781 108.33300781 -175.03686523 109.86352539 C-172.27988303 112.15713644 -169.72380414 111.77273646 -166.19628906 111.84472656 C-165.17054024 111.87165337 -165.17054024 111.87165337 -164.12406921 111.89912415 C-161.94377781 111.95322857 -159.76370526 111.98712121 -157.58300781 112.02050781 C-156.10315965 112.05368101 -154.62334036 112.08817068 -153.14355469 112.12402344 C-149.51941612 112.20895305 -145.8952013 112.27576416 -142.27050781 112.33300781 C-142.17962891 110.96015625 -142.17962891 110.96015625 -142.08691406 109.55957031 C-142.003125 108.37105469 -141.91933594 107.18253906 -141.83300781 105.95800781 C-141.75179687 104.77464844 -141.67058594 103.59128906 -141.58691406 102.37207031 C-141.27050781 99.33300781 -141.27050781 99.33300781 -140.27050781 97.33300781 C-141.11758301 97.36442871 -141.9646582 97.39584961 -142.83740234 97.42822266 C-146.00185992 97.53091695 -149.16546442 97.60590729 -152.33105469 97.66259766 C-153.69690003 97.69264109 -155.0625545 97.73349085 -156.42773438 97.78564453 C-167.90867046 98.21303704 -167.90867046 98.21303704 -171.37866211 95.97070312 C-172.74895706 94.48913839 -174.01818414 92.91554619 -175.27050781 91.33300781 C-177.6185809 90.83257275 -177.6185809 90.83257275 -179.83300781 91.33300781 C-183.83550392 91.61696869 -183.83550392 91.61696869 -185.95800781 90.23144531 C-188.20090671 87.74641529 -189.23059875 85.5285622 -189.89550781 82.27050781 C-189.03099897 78.20731627 -187.61779954 76.75445289 -184.27050781 74.33300781 C-180.77050781 73.70800781 -180.77050781 73.70800781 -177.27050781 74.33300781 C-173.56782429 76.98928078 -172.42451246 78.43978089 -171.64550781 82.95800781 C-171.52175781 84.07175781 -171.39800781 85.18550781 -171.27050781 86.33300781 C-170.22930854 88.15444487 -170.22930854 88.15444487 -168.27050781 89.33300781 C-165.16957042 89.74844739 -165.16957042 89.74844739 -161.63378906 89.62597656 C-160.33505859 89.61630859 -159.03632813 89.60664063 -157.69824219 89.59667969 C-156.32649143 89.57161366 -154.95474664 89.54621882 -153.58300781 89.52050781 C-152.19955857 89.50545801 -150.8160938 89.49177011 -149.43261719 89.47949219 C-146.04508055 89.4440824 -142.65774545 89.39027482 -139.27050781 89.33300781 C-137.62050781 85.04300781 -135.97050781 80.75300781 -134.27050781 76.33300781 C-136.49994141 76.59404297 -136.49994141 76.59404297 -138.77441406 76.86035156 C-148.30786264 77.63864114 -156.62010993 78.19373351 -164.25634766 71.72607422 C-169.27550509 66.69687094 -172.93167552 62.2134728 -173.2746582 54.91333008 C-173.17850708 52.00238135 -172.81781632 49.19117446 -172.27050781 46.33300781 C-172.88925781 46.04425781 -173.50800781 45.75550781 -174.14550781 45.45800781 C-176.27050781 44.33300781 -176.27050781 44.33300781 -178.27050781 42.33300781 C-178.82585083 37.49359013 -178.99480305 35.41945067 -176.27050781 31.33300781 C-172.94105917 29.11337538 -171.13131847 28.5776101 -167.20800781 28.85253906 C-163.70197751 29.72197803 -162.25834218 31.41337608 -160.27050781 34.33300781 C-159.57551802 38.65738876 -159.78027987 40.56498403 -162.14550781 44.27050781 C-164.27050781 46.33300781 -164.27050781 46.33300781 -166.27050781 46.33300781 C-166.34692978 48.31080821 -166.35341164 50.29133667 -166.33300781 52.27050781 C-166.34460938 53.37265625 -166.35621094 54.47480469 -166.36816406 55.61035156 C-164.64273022 61.46208983 -161.38909106 65.05260678 -156.27050781 68.33300781 C-151.54692874 69.50147025 -147.05422193 69.50629314 -142.20800781 69.39550781 C-140.96083984 69.40259766 -139.71367187 69.4096875 -138.42871094 69.41699219 C-135.37362213 69.42869751 -132.32472096 69.39972994 -129.27050781 69.33300781 C-128.97660156 68.56085938 -128.68269531 67.78871094 -128.37988281 66.99316406 C-127.27050781 64.33300781 -127.27050781 64.33300781 -125.52050781 61.77050781 C-125.10800781 60.96613281 -124.69550781 60.16175781 -124.27050781 59.33300781 C-125.44892291 56.01746702 -127.27885031 54.22594395 -129.95800781 52.02050781 C-130.663125 51.40433594 -131.36824219 50.78816406 -132.09472656 50.15332031 C-134.20610035 48.33156947 -134.20610035 48.33156947 -136.35253906 46.88769531 C-139.11083645 44.74172871 -140.99941197 43.0444399 -141.56689453 39.46191406 C-141.87171044 34.73238608 -141.6274984 30.05321664 -141.27050781 25.33300781 C-141.88925781 25.06488281 -142.50800781 24.79675781 -143.14550781 24.52050781 C-145.27050781 23.33300781 -145.27050781 23.33300781 -147.27050781 20.33300781 C-148.10622323 15.63540747 -147.8982608 12.29425457 -145.27050781 8.27050781 C-142.14721166 6.25337905 -140.01188763 5.58376433 -136.27441406 5.86035156 C-132.34486476 6.78720432 -130.86199431 8.15843685 -128.27050781 11.33300781 C-127.47343079 14.50411278 -127.48451486 17.16035015 -128.27050781 20.33300781 C-130.64550781 23.39550781 -130.64550781 23.39550781 -133.27050781 25.33300781 C-133.93050781 25.33300781 -134.59050781 25.33300781 -135.27050781 25.33300781 C-135.27050781 29.95300781 -135.27050781 34.57300781 -135.27050781 39.33300781 C-134.28050781 39.66300781 -133.29050781 39.99300781 -132.27050781 40.33300781 C-130.55692138 41.951395 -128.89973521 43.62972462 -127.27050781 45.33300781 C-126.00231379 46.60647499 -124.73141107 47.87724961 -123.45800781 49.14550781 C-122.39550781 50.20800781 -121.33300781 51.27050781 -120.27050781 52.33300781 C-116.78497074 50.85595286 -114.7144175 48.89926525 -112.14550781 46.14550781 C-97.79663861 31.58733582 -76.55143808 21.2529554 -56.00317383 20.95019531 C-42.6203399 20.98317573 -42.6203399 20.98317573 -41.27050781 22.33300781 C-40.99436268 24.95638653 -40.87144353 26.67627997 -42.26269531 28.96582031 C-45.44537875 31.13301721 -48.91963955 30.7781818 -52.64550781 30.83300781 C-71.19235756 31.55429469 -86.70064705 37.84128664 -101.27050781 49.33300781 C-102.00269531 49.88988281 -102.73488281 50.44675781 -103.48925781 51.02050781 C-114.44720842 59.97207309 -122.15361252 72.27791538 -127.27050781 85.33300781 C-127.58503906 86.09742188 -127.89957031 86.86183594 -128.22363281 87.64941406 C-134.66457818 104.79369512 -133.52793167 123.1963529 -128.27050781 140.33300781 C-127.97015625 141.32042969 -127.66980469 142.30785156 -127.36035156 143.32519531 C-119.22496327 167.62570579 -102.64703626 183.04595097 -80.27050781 194.33300781 C-78.94544789 194.6978435 -77.61323658 195.03980421 -76.27050781 195.33300781 C-75.80644531 194.37394531 -75.80644531 194.37394531 -75.33300781 193.39550781 C-74.27050781 191.33300781 -74.27050781 191.33300781 -73.27050781 190.33300781 C-71.73567811 190.23981332 -70.19658699 190.21554981 -68.65893555 190.21948242 C-67.67799423 190.21955795 -66.69705292 190.21963348 -65.68638611 190.2197113 C-64.61973221 190.22487259 -63.55307831 190.23003387 -62.45410156 190.23535156 C-60.82481468 190.23747398 -60.82481468 190.23747398 -59.16261292 190.23963928 C-55.67771706 190.24525733 -52.19288439 190.25781289 -48.70800781 190.27050781 C-46.35188895 190.27552049 -43.99576908 190.2800838 -41.63964844 190.28417969 C-35.84991038 190.29523263 -30.06021982 190.31250935 -24.27050781 190.33300781 C-24.27050781 184.39300781 -24.27050781 178.45300781 -24.27050781 172.33300781 C-25.42550781 172.00300781 -26.58050781 171.67300781 -27.77050781 171.33300781 C-33.03140015 169.58211708 -37.88467575 167.12041179 -42.80786133 164.60424805 C-48.79186684 161.54833301 -54.85085488 158.67750911 -60.95019531 155.85961914 C-66.16888583 153.4346298 -66.16888583 153.4346298 -67.27050781 152.33300781 C-67.34230745 150.81372743 -67.35442789 149.291333 -67.33300781 147.77050781 C-67.32398438 146.94421875 -67.31496094 146.11792969 -67.30566406 145.26660156 C-67.2940625 144.62851563 -67.28246094 143.99042969 -67.27050781 143.33300781 C-68.61012573 143.35657349 -68.61012573 143.35657349 -69.97680664 143.38061523 C-73.29229538 143.4317622 -76.60736457 143.46936593 -79.9230957 143.49780273 C-81.35773333 143.5128837 -82.7923249 143.53335161 -84.22680664 143.55932617 C-86.2896664 143.59574218 -88.35191639 143.61274024 -90.41503906 143.62597656 C-92.27672729 143.64954224 -92.27672729 143.64954224 -94.17602539 143.67358398 C-97.27050781 143.33300781 -97.27050781 143.33300781 -99.17626953 141.93798828 C-101.26654309 138.87206718 -100.55640352 135.93529376 -100.27050781 132.33300781 C-97.74826826 129.81076826 -96.17681851 130.08548793 -92.73535156 130.05084229 C-91.96336426 130.0533197 -91.19137695 130.05579712 -90.39599609 130.05834961 C-89.58282928 130.05323868 -88.76966248 130.04812775 -87.93185425 130.04286194 C-85.23476874 130.02892409 -82.53793762 130.02992605 -79.84082031 130.03222656 C-77.96995956 130.02834149 -76.09909969 130.02400721 -74.22824097 130.01924133 C-70.30235946 130.01176978 -66.37656786 130.01207683 -62.45068359 130.01733398 C-57.41768894 130.02312511 -52.38506271 130.00621081 -47.35212898 129.98298931 C-43.48654017 129.96826109 -39.62104021 129.96737911 -35.75542831 129.97049904 C-33.89986314 129.96998521 -32.04429307 129.96473595 -30.18875504 129.95468712 C-27.59352928 129.94235977 -24.99902271 129.94909229 -22.40380859 129.96069336 C-21.63586975 129.95304962 -20.86793091 129.94540588 -20.07672119 129.93753052 C-16.91229843 129.9688194 -14.61375583 130.15252573 -11.78952026 131.63752747 C-10.27050781 133.33300781 -10.27050781 133.33300781 -9.83300781 136.83300781 C-10.27050781 140.33300781 -10.27050781 140.33300781 -11.49243164 142.03344727 C-13.83947263 143.74885289 -15.26918391 143.67848643 -18.15722656 143.62597656 C-19.09501953 143.61630859 -20.0328125 143.60664063 -20.99902344 143.59667969 C-21.97548828 143.57154297 -22.95195312 143.54640625 -23.95800781 143.52050781 C-24.94607422 143.50697266 -25.93414062 143.4934375 -26.95214844 143.47949219 C-29.39215012 143.44412984 -31.831055 143.39477814 -34.27050781 143.33300781 C-33.95556456 146.31868239 -33.78475579 147.87598495 -31.49560547 149.91040039 C-28.97431349 151.34737168 -26.45037076 152.76882267 -23.89550781 154.14550781 C-23.03828125 154.64759766 -22.18105469 155.1496875 -21.29785156 155.66699219 C-14.89465376 159.18444389 -9.54586868 160.33377675 -2.27050781 159.33300781 C7.65309159 156.01647066 14.46707886 147.16919299 19.10449219 138.20800781 C24.57431417 126.93222954 25.89625614 113.13481688 22.66699219 100.89550781 C18.04890811 88.56629729 10.12809834 78.05526272 -1.27050781 71.33300781 C-1.61082031 72.31140625 -1.61082031 72.31140625 -1.95800781 73.30957031 C-4.04380574 78.11435482 -6.88653035 82.46991855 -9.63769531 86.91894531 C-12.32532404 91.37182131 -13.9735062 95.30712655 -15.27050781 100.33300781 C-15.93050781 101.32300781 -16.59050781 102.31300781 -17.27050781 103.33300781 C-21.81949828 103.76215786 -25.16261043 103.32471563 -29.27050781 101.33300781 C-29.5734375 101.91050781 -29.87636719 102.48800781 -30.18847656 103.08300781 C-30.60742188 103.82550781 -31.02636719 104.56800781 -31.45800781 105.33300781 C-31.8640625 106.07550781 -32.27011719 106.81800781 -32.68847656 107.58300781 C-34.27050781 109.33300781 -34.27050781 109.33300781 -36.52441406 109.82910156 C-40.20802881 109.16364058 -42.94420429 107.41757249 -46.02050781 105.39550781 C-46.60960937 105.02232422 -47.19871094 104.64914063 -47.80566406 104.26464844 C-52.04022507 101.56329055 -52.04022507 101.56329055 -53.27050781 100.33300781 C-52.87969375 95.35012849 -51.7106282 91.68278763 -49.27050781 87.33300781 C-50.47707031 86.86894531 -50.47707031 86.86894531 -51.70800781 86.39550781 C-54.27050781 85.33300781 -54.27050781 85.33300781 -55.27050781 84.33300781 C-55.70153361 80.53998076 -55.52816159 78.75629617 -53.52050781 75.45800781 C-51.27050781 73.33300781 -51.27050781 73.33300781 -47.27050781 73.33300781 C-46.9966626 72.60645996 -46.72281738 71.87991211 -46.44067383 71.13134766 C-45.31721537 68.44470445 -44.03742751 66.0585548 -42.54785156 63.55957031 C-42.01361572 62.65948242 -41.47937988 61.75939453 -40.92895508 60.83203125 C-40.36104248 59.88360352 -39.79312988 58.93517578 -39.20800781 57.95800781 C-38.33390259 56.48895996 -38.33390259 56.48895996 -37.44213867 54.99023438 C-35.7221992 52.10211902 -33.99724673 49.21706194 -32.27050781 46.33300781 C-31.58069824 45.17913574 -31.58069824 45.17913574 -30.87695312 44.00195312 C-27.6239775 38.56176275 -27.6239775 38.56176275 -26.23974609 36.28417969 C-24.62750953 33.62943865 -23.0726544 30.965962 -21.59863281 28.23144531 C-17.95618281 21.56613731 -17.95618281 21.56613731 -14.14550781 20.27050781 C-13.19675781 20.29113281 -12.24800781 20.31175781 -11.27050781 20.33300781 C-9.12274451 20.33778818 -9.12274451 20.33778818 -7.27050781 19.33300781 C-5.69625726 17.08020098 -4.52369993 14.79463519 -3.27050781 12.33300781 C-5.25050781 11.34300781 -5.25050781 11.34300781 -7.27050781 10.33300781 C-6.74028067 5.69352031 -5.15621683 0.75624513 0 0 Z " fill="#04515F" transform="translate(292.2705078125,99.6669921875)"/>
<path d="M0 0 C3.9295493 0.92685276 5.41241975 2.29808529 8.00390625 5.47265625 C8.80098327 8.64376122 8.7898992 11.29999859 8.00390625 14.47265625 C5.62890625 17.53515625 5.62890625 17.53515625 3.00390625 19.47265625 C2.34390625 19.47265625 1.68390625 19.47265625 1.00390625 19.47265625 C1.00390625 24.09265625 1.00390625 28.71265625 1.00390625 33.47265625 C1.99390625 33.80265625 2.98390625 34.13265625 4.00390625 34.47265625 C5.71749268 36.09104344 7.37467885 37.76937306 9.00390625 39.47265625 C10.27210027 40.74612343 11.54300299 42.01689805 12.81640625 43.28515625 C13.87890625 44.34765625 14.94140625 45.41015625 16.00390625 46.47265625 C19.48944332 44.9956013 21.55999656 43.03891369 24.12890625 40.28515625 C38.47777545 25.72698426 59.72297598 15.39260384 80.27124023 15.08984375 C93.65407416 15.12282416 93.65407416 15.12282416 95.00390625 16.47265625 C95.28005138 19.09603496 95.40297054 20.81592841 94.01171875 23.10546875 C90.82903531 25.27266565 87.35477451 24.91783024 83.62890625 24.97265625 C65.0820565 25.69394313 49.57376702 31.98093508 35.00390625 43.47265625 C34.27171875 44.02953125 33.53953125 44.58640625 32.78515625 45.16015625 C21.82720565 54.11172153 14.12080154 66.41756382 9.00390625 79.47265625 C8.689375 80.23707031 8.37484375 81.00148438 8.05078125 81.7890625 C1.60983588 98.93334356 2.7464824 117.33600134 8.00390625 134.47265625 C8.30425781 135.46007812 8.60460937 136.4475 8.9140625 137.46484375 C16.62847804 160.50790314 31.66044154 175.26885072 52.5625 186.58984375 C56.00390625 188.47265625 56.00390625 188.47265625 59.00390625 190.47265625 C58.36453125 191.31828125 57.72515625 192.16390625 57.06640625 193.03515625 C54.80727895 196.3799419 54.32598866 199.44662617 54.00390625 203.47265625 C53.67390625 203.47265625 53.34390625 203.47265625 53.00390625 203.47265625 C53.00390625 201.16265625 53.00390625 198.85265625 53.00390625 196.47265625 C52.33359375 196.39660156 51.66328125 196.32054687 50.97265625 196.2421875 C32.67549573 191.49937089 15.93465428 172.32957279 6.7265625 156.7109375 C5.00390625 153.47265625 5.00390625 153.47265625 5.00390625 151.47265625 C3.10468879 153.08207486 1.231092 154.7113403 -0.62109375 156.375 C-2.20278041 157.77198312 -3.82935601 159.11973648 -5.49609375 160.4140625 C-10.17843306 164.36853817 -12.41187963 167.17514724 -12.96899414 173.45507812 C-13.09872405 176.46679154 -13.09531371 179.46033838 -12.99609375 182.47265625 C-12.3721875 182.60285156 -11.74828125 182.73304688 -11.10546875 182.8671875 C-8.99609375 183.47265625 -8.99609375 183.47265625 -7.24609375 185.16015625 C-5.5645258 188.27105695 -5.43623558 189.9735427 -5.99609375 193.47265625 C-7.82710307 196.39548965 -9.86257083 198.90589479 -12.99609375 200.47265625 C-16.82801213 200.89842496 -18.52559058 200.7758694 -21.80859375 198.66015625 C-24.65836443 195.81038557 -24.94617245 194.0217906 -25.30859375 190.03515625 C-24.99609375 186.47265625 -24.99609375 186.47265625 -23.12109375 184.03515625 C-20.99609375 182.47265625 -20.99609375 182.47265625 -18.99609375 182.47265625 C-19.21652344 181.46589844 -19.43695313 180.45914063 -19.6640625 179.421875 C-20.3748403 174.55708689 -20.69071241 170.16404547 -18.99609375 165.47265625 C-15.44959475 160.84258085 -11.11756654 157.05968612 -6.57885742 153.42260742 C-3.96017926 151.20578992 -1.86283922 149.35737017 0.00390625 146.47265625 C0.19800521 141.96426685 -0.70715396 138.8823542 -1.99609375 134.47265625 C-7.93609375 134.47265625 -13.87609375 134.47265625 -19.99609375 134.47265625 C-19.99609375 135.13265625 -19.99609375 135.79265625 -19.99609375 136.47265625 C-21.13429399 137.38437787 -22.30717176 138.2531442 -23.49609375 139.09765625 C-26.24724013 141.27970427 -26.24724013 141.27970427 -27.35546875 144.46875 C-27.24949846 146.47083151 -27.12313217 148.4718011 -26.99609375 150.47265625 C-29.13498264 155.04210069 -29.13498264 155.04210069 -31.99609375 156.47265625 C-35.83224332 156.82785528 -38.14239009 157.01990219 -41.43359375 154.91015625 C-43.60005403 151.53047821 -43.55897377 149.41281638 -42.99609375 145.47265625 C-40.93918155 142.54551196 -39.60695248 141.63415726 -36.14453125 140.71875 C-32.21311332 139.16276697 -30.8501311 137.14099761 -28.24609375 133.84765625 C-24.95403119 130.07683527 -22.35749624 128.18539545 -17.28125 127.75 C-12.81872279 127.66664568 -8.4303523 127.9897172 -3.99609375 128.47265625 C-4.14046875 127.725 -4.28484375 126.97734375 -4.43359375 126.20703125 C-4.61921875 125.2221875 -4.80484375 124.23734375 -4.99609375 123.22265625 C-5.18171875 122.248125 -5.36734375 121.27359375 -5.55859375 120.26953125 C-5.99609375 117.47265625 -5.99609375 117.47265625 -5.99609375 113.47265625 C-10.35660545 113.54152045 -14.71618773 113.62947814 -19.07592773 113.73510742 C-20.55889229 113.76835048 -22.04198319 113.79638448 -23.52514648 113.8190918 C-25.65793668 113.85265093 -27.78956987 113.90496263 -29.921875 113.9609375 C-31.84640503 114.00021362 -31.84640503 114.00021362 -33.80981445 114.0402832 C-37.27372352 114.51033017 -37.81206583 114.9614944 -39.99609375 117.47265625 C-43.08954153 117.86547502 -45.0418458 118.1027373 -47.99609375 117.47265625 C-50.97811453 114.93793859 -51.82674446 113.28553286 -52.62109375 109.47265625 C-51.99609375 106.47265625 -51.99609375 106.47265625 -49.37109375 103.53515625 C-45.99609375 101.47265625 -45.99609375 101.47265625 -42.80859375 101.47265625 C-39.99609375 102.47265625 -39.99609375 102.47265625 -38.76245117 104.00317383 C-36.00546896 106.29678487 -33.44939008 105.9123849 -29.921875 105.984375 C-28.89612617 106.0113018 -28.89612617 106.0113018 -27.84965515 106.03877258 C-25.66936375 106.092877 -23.48929119 106.12676965 -21.30859375 106.16015625 C-19.82874558 106.19332945 -18.3489263 106.22781912 -16.86914062 106.26367188 C-13.24500206 106.34860149 -9.62078723 106.4154126 -5.99609375 106.47265625 C-5.90521484 105.09980469 -5.90521484 105.09980469 -5.8125 103.69921875 C-5.72871094 102.51070313 -5.64492187 101.3221875 -5.55859375 100.09765625 C-5.47738281 98.91429687 -5.39617187 97.7309375 -5.3125 96.51171875 C-4.99609375 93.47265625 -4.99609375 93.47265625 -3.99609375 91.47265625 C-4.84316895 91.50407715 -5.69024414 91.53549805 -6.56298828 91.56787109 C-9.72744585 91.67056539 -12.89105036 91.74555572 -16.05664062 91.80224609 C-17.42248597 91.83228952 -18.78814043 91.87313929 -20.15332031 91.92529297 C-31.6342564 92.35268548 -31.6342564 92.35268548 -35.10424805 90.11035156 C-36.474543 88.62878683 -37.74377007 87.05519463 -38.99609375 85.47265625 C-41.34416684 84.97222119 -41.34416684 84.97222119 -43.55859375 85.47265625 C-47.56108986 85.75661712 -47.56108986 85.75661712 -49.68359375 84.37109375 C-51.92649264 81.88606373 -52.95618469 79.66821063 -53.62109375 76.41015625 C-52.75658491 72.34696471 -51.34338548 70.89410133 -47.99609375 68.47265625 C-44.49609375 67.84765625 -44.49609375 67.84765625 -40.99609375 68.47265625 C-37.29341023 71.12892921 -36.15009839 72.57942932 -35.37109375 77.09765625 C-35.24734375 78.21140625 -35.12359375 79.32515625 -34.99609375 80.47265625 C-33.95489448 82.29409331 -33.95489448 82.29409331 -31.99609375 83.47265625 C-28.89515636 83.88809583 -28.89515636 83.88809583 -25.359375 83.765625 C-24.06064453 83.75595703 -22.76191406 83.74628906 -21.42382812 83.73632812 C-20.05207736 83.7112621 -18.68033257 83.68586726 -17.30859375 83.66015625 C-15.92514451 83.64510645 -14.54167974 83.63141855 -13.15820312 83.61914062 C-9.77066649 83.58373083 -6.38333138 83.52992326 -2.99609375 83.47265625 C-1.34609375 79.18265625 0.30390625 74.89265625 2.00390625 70.47265625 C-0.22552734 70.73369141 -0.22552734 70.73369141 -2.5 71 C-12.03344858 71.77828957 -20.34569586 72.33338195 -27.98193359 65.86572266 C-33.00109102 60.83651938 -36.65726145 56.35312123 -37.00024414 49.05297852 C-36.90409302 46.14202979 -36.54340226 43.3308229 -35.99609375 40.47265625 C-36.61484375 40.18390625 -37.23359375 39.89515625 -37.87109375 39.59765625 C-39.99609375 38.47265625 -39.99609375 38.47265625 -41.99609375 36.47265625 C-42.55143676 31.63323857 -42.72038899 29.55909911 -39.99609375 25.47265625 C-36.66664511 23.25302382 -34.85690441 22.71725853 -30.93359375 22.9921875 C-27.42756345 23.86162647 -25.98392812 25.55302452 -23.99609375 28.47265625 C-23.30110396 32.79703719 -23.5058658 34.70463247 -25.87109375 38.41015625 C-27.99609375 40.47265625 -27.99609375 40.47265625 -29.99609375 40.47265625 C-30.07251571 42.45045665 -30.07899758 44.43098511 -30.05859375 46.41015625 C-30.07019531 47.51230469 -30.08179687 48.61445313 -30.09375 49.75 C-28.36831615 55.60173827 -25.114677 59.19225522 -19.99609375 62.47265625 C-15.27251468 63.64111869 -10.77980786 63.64594158 -5.93359375 63.53515625 C-4.0628418 63.54579102 -4.0628418 63.54579102 -2.15429688 63.55664062 C0.90079194 63.56834595 3.9496931 63.53937837 7.00390625 63.47265625 C7.2978125 62.70050781 7.59171875 61.92835938 7.89453125 61.1328125 C9.00390625 58.47265625 9.00390625 58.47265625 10.75390625 55.91015625 C11.16640625 55.10578125 11.57890625 54.30140625 12.00390625 53.47265625 C10.82549115 50.15711546 8.99556375 48.36559239 6.31640625 46.16015625 C5.61128906 45.54398438 4.90617187 44.9278125 4.1796875 44.29296875 C2.06831372 42.47121791 2.06831372 42.47121791 -0.078125 41.02734375 C-2.83642239 38.88137714 -4.72499791 37.18408834 -5.29248047 33.6015625 C-5.59729638 28.87203452 -5.35308433 24.19286508 -4.99609375 19.47265625 C-5.61484375 19.20453125 -6.23359375 18.93640625 -6.87109375 18.66015625 C-8.99609375 17.47265625 -8.99609375 17.47265625 -10.99609375 14.47265625 C-11.83180917 9.77505591 -11.62384673 6.43390301 -8.99609375 2.41015625 C-5.8727976 0.39302749 -3.73747357 -0.27658723 0 0 Z " fill="#4DBC87" transform="translate(155.99609375,105.52734375)"/>
<path d="M0 0 C1.010625 -0.00773437 2.02125 -0.01546875 3.0625 -0.0234375 C7.8089042 0.62035669 10.40622685 2.80761677 13.8125 6.0625 C16.49194735 10.11994885 16.86775363 12.65894767 16 17.375 C14.38879472 21.56413372 12.4323836 24.47892634 9 27.375 C2.9434615 29.39384617 -3.75846411 29.39745497 -9.5625 26.75 C-13.55995435 22.85504448 -15.14913231 19.40979915 -15.4375 13.875 C-15.27137833 9.38971493 -14.0067292 6.78804396 -11 3.375 C-7.24658581 0.66168854 -4.61173111 -0.03529386 0 0 Z " fill="#0B505F" transform="translate(207,331.625)"/>
<path d="M0 0 C3.196875 -0.0825 6.39375 -0.165 9.6875 -0.25 C10.68612061 -0.28641602 11.68474121 -0.32283203 12.71362305 -0.36035156 C16.92666564 -0.41298806 19.39569405 -0.34683224 23.1171875 1.7890625 C25 4 25 4 25.4375 7.625 C25 11 25 11 23 13 C23.66 13.721875 24.32 14.44375 25 15.1875 C27 18 27 18 27.625 20.5 C26.85951484 23.56194063 25.43361995 25.00199307 22.99658203 26.95263672 C18.97712646 29.06115523 14.54535657 28.50565557 10.125 28.3125 C6.78375 28.209375 3.4425 28.10625 0 28 C0 18.76 0 9.52 0 0 Z " fill="#0D5260" transform="translate(137,332)"/>
<path d="M0 0 C3.5060303 0.86943897 4.94966563 2.56083702 6.9375 5.48046875 C7.63248979 9.80484969 7.42772795 11.71244497 5.0625 15.41796875 C2.9375 17.48046875 2.9375 17.48046875 0.9375 17.48046875 C0.55947284 24.57403726 1.0071556 30.50022358 5.5 36.23046875 C13.51892018 43.5289852 25.74914204 41.81383513 35.9375 41.48046875 C35.6075 43.13046875 35.2775 44.78046875 34.9375 46.48046875 C11.72905432 48.86256728 11.72905432 48.86256728 4.09375 43.890625 C-0.99843864 39.65585824 -5.01104654 34.93233161 -5.890625 28.2109375 C-6.06433461 24.56603068 -5.6970643 21.07633314 -5.0625 17.48046875 C-5.990625 17.04734375 -5.990625 17.04734375 -6.9375 16.60546875 C-9.0625 15.48046875 -9.0625 15.48046875 -11.0625 13.48046875 C-11.61784301 8.64105107 -11.78679524 6.56691161 -9.0625 2.48046875 C-5.73305136 0.26083632 -3.92331066 -0.27492897 0 0 Z " fill="#1991AD" transform="translate(125.0625,128.51953125)"/>
<path d="M0 0 C3.9295493 0.92685276 5.41241975 2.29808529 8.00390625 5.47265625 C8.80098327 8.64376122 8.7898992 11.29999859 8.00390625 14.47265625 C5.62890625 17.53515625 5.62890625 17.53515625 3.00390625 19.47265625 C2.34390625 19.47265625 1.68390625 19.47265625 1.00390625 19.47265625 C1.00390625 24.09265625 1.00390625 28.71265625 1.00390625 33.47265625 C1.99390625 33.80265625 2.98390625 34.13265625 4.00390625 34.47265625 C5.73178319 36.10179737 7.36433436 37.75818006 9.00390625 39.47265625 C10.4387368 40.91282075 11.87636426 42.35020275 13.31640625 43.78515625 C14.54557292 45.01432292 15.77473958 46.24348958 17.00390625 47.47265625 C16.34390625 48.79265625 15.68390625 50.11265625 15.00390625 51.47265625 C10.77819995 51.47265625 9.02313598 49.05494121 6.12890625 46.28515625 C5.61199219 45.80240234 5.09507812 45.31964844 4.5625 44.82226562 C3.52942261 43.85294239 2.50579157 42.87345133 1.49194336 41.8840332 C0.10188721 40.56558946 -1.3768454 39.34243662 -2.859375 38.12890625 C-5.82153549 34.44651295 -5.57416595 31.73208379 -5.30859375 27.16015625 C-5.28603516 26.41958984 -5.26347656 25.67902344 -5.24023438 24.91601562 C-5.18167525 23.10068268 -5.09200261 21.28639944 -4.99609375 19.47265625 C-5.61484375 19.20453125 -6.23359375 18.93640625 -6.87109375 18.66015625 C-8.99609375 17.47265625 -8.99609375 17.47265625 -10.99609375 14.47265625 C-11.83180917 9.77505591 -11.62384673 6.43390301 -8.99609375 2.41015625 C-5.8727976 0.39302749 -3.73747357 -0.27658723 0 0 Z " fill="#1C92AE" transform="translate(155.99609375,105.52734375)"/>
<path d="M0 0 C1.5625 1.25 1.5625 1.25 3 3 C2.86566308 5.58376797 2.27967248 6.69787037 0.52539062 8.59301758 C-0.09142578 9.10501709 -0.70824219 9.6170166 -1.34375 10.14453125 C-10.4981546 17.70111421 -10.4981546 17.70111421 -14.41015625 28.41088867 C-14.44913427 31.29978615 -14.32167138 34.12938836 -14 37 C-13.37609375 37.13019531 -12.7521875 37.26039063 -12.109375 37.39453125 C-10 38 -10 38 -8.25 39.6875 C-6.56843205 42.7984007 -6.44014183 44.50088645 -7 48 C-8.83100932 50.9228334 -10.86647708 53.43323854 -14 55 C-17.83191838 55.42576871 -19.52949683 55.30321315 -22.8125 53.1875 C-25.66227068 50.33772932 -25.9500787 48.54913435 -26.3125 44.5625 C-26 41 -26 41 -24.125 38.5625 C-22 37 -22 37 -20 37 C-20.23203125 36.00484375 -20.4640625 35.0096875 -20.703125 33.984375 C-21.67778154 27.69707889 -21.84648408 22.60391001 -18.03710938 17.23193359 C-12.51099989 10.98742987 -6.33816576 5.40682624 0 0 Z " fill="#1991AD" transform="translate(157,251)"/>
<path d="M0 0 C2.31 0 4.62 0 7 0 C7 3.63 7 7.26 7 11 C10.63 11 14.26 11 18 11 C18 7.37 18 3.74 18 0 C20.64 0 23.28 0 26 0 C26 9.24 26 18.48 26 28 C23.36 28 20.72 28 18 28 C18 24.37 18 20.74 18 17 C14.37 17 10.74 17 7 17 C7 20.63 7 24.26 7 28 C4.69 28 2.38 28 0 28 C0 18.76 0 9.52 0 0 Z " fill="#074E5C" transform="translate(322,332)"/>
<path d="M0 0 C2.56959687 1.06836286 3.92401928 2.10196048 6 4 C4.68 5.65 3.36 7.3 2 9 C1.29875 8.67 0.5975 8.34 -0.125 8 C-3.32035587 6.88857187 -5.63918352 6.70775509 -9 7 C-9.99 7.66 -10.98 8.32 -12 9 C-12.36460453 11.66653905 -12.36460453 11.66653905 -12.1875 14.625 C-12.16042969 15.62789063 -12.13335937 16.63078125 -12.10546875 17.6640625 C-12.07066406 18.43492187 -12.03585937 19.20578125 -12 20 C-9.03 20.33 -6.06 20.66 -3 21 C-2.67 18.36 -2.34 15.72 -2 13 C0.64 13 3.28 13 6 13 C6 16.96 6 20.92 6 25 C0.23124572 28.95571722 -6.21019182 29.04718435 -13 28 C-16.97024737 26.00155334 -19.20714488 23.34440651 -21.4375 19.5625 C-22.51127265 14.67086905 -22.69466583 11.31214656 -20.3125 6.8125 C-14.29943308 -0.50068949 -9.18160755 -1.19660048 0 0 Z " fill="#145664" transform="translate(305,332)"/>
<path d="M0 0 C0.67611328 0.01417969 1.35222656 0.02835937 2.04882812 0.04296875 C6.94047619 0.1889881 6.94047619 0.1889881 9.3125 1.375 C8.9825 3.025 8.6525 4.675 8.3125 6.375 C4.3311217 7.7021261 0.46204773 7.44415913 -3.6875 7.375 C-4.0175 8.365 -4.3475 9.355 -4.6875 10.375 C-2.893125 10.5296875 -2.893125 10.5296875 -1.0625 10.6875 C2.88177729 11.17790748 5.88758167 12.28663517 9.3125 14.375 C10.84096661 17.43193322 10.54492445 20.00484547 10.3125 23.375 C8.55234869 26.5600357 7.81359084 27.20796972 4.3125 28.375 C1.98144093 28.49547541 -0.35336142 28.55034303 -2.6875 28.5625 C-3.925 28.57667969 -5.1625 28.59085937 -6.4375 28.60546875 C-9.6875 28.375 -9.6875 28.375 -12.6875 26.375 C-12.3575 24.395 -12.0275 22.415 -11.6875 20.375 C-11.048125 20.54 -10.40875 20.705 -9.75 20.875 C-5.71163348 21.53432515 -1.76942742 21.45503779 2.3125 21.375 C2.3125 20.715 2.3125 20.055 2.3125 19.375 C1.64863281 19.20484375 0.98476562 19.0346875 0.30078125 18.859375 C-9.53292587 16.16048896 -9.53292587 16.16048896 -12.6875 12.375 C-13.3125 8.9375 -13.3125 8.9375 -12.6875 5.375 C-8.85434454 0.34898402 -6.19961572 -0.23073986 0 0 Z " fill="#0F5361" transform="translate(244.6875,331.625)"/>
<path d="M0 0 C4.46169385 0.79673104 5.85725313 1.97179109 8.5 5.625 C8.86760731 7.95317964 9.20241581 10.2868385 9.5 12.625 C11.68381845 15.55913582 12.89159036 16.51518373 16.52441406 17.17089844 C17.67651367 17.1918457 18.82861328 17.21279297 20.015625 17.234375 C21.26601562 17.26660156 22.51640625 17.29882812 23.8046875 17.33203125 C25.10664063 17.34621094 26.40859375 17.36039063 27.75 17.375 C29.06742188 17.40464844 30.38484375 17.43429688 31.7421875 17.46484375 C34.99485343 17.53555388 38.24680193 17.58824786 41.5 17.625 C41.5 19.275 41.5 20.925 41.5 22.625 C37.17677539 22.74900035 32.85450398 22.83952256 28.5300293 22.8996582 C27.06044475 22.92473644 25.59098413 22.95880856 24.12182617 23.00219727 C22.00408319 23.06315499 19.88799424 23.09127316 17.76953125 23.11328125 C16.49698486 23.13946533 15.22443848 23.16564941 13.91333008 23.19262695 C9.63328875 22.48086842 8.31012435 20.8185654 5.5 17.625 C3.22597273 17.24451818 3.22597273 17.24451818 1 17.6875 C-3.04293051 17.92373133 -3.04293051 17.92373133 -5.19140625 16.51953125 C-7.43249854 14.03581358 -8.46058214 11.8181475 -9.125 8.5625 C-7.99154252 3.23524985 -5.29142041 0.9448965 0 0 Z " fill="#148FAC" transform="translate(111.5,173.375)"/>
<path d="M0 0 C2 3 2 3 2 6 C-3.94 6 -9.88 6 -16 6 C-16 6.66 -16 7.32 -16 8 C-17.13820024 8.91172162 -18.31107801 9.78048795 -19.5 10.625 C-22.25114638 12.80704802 -22.25114638 12.80704802 -23.359375 15.99609375 C-23.25340471 17.99817526 -23.12703842 19.99914485 -23 22 C-25.13888889 26.56944444 -25.13888889 26.56944444 -28 28 C-31.83614957 28.35519903 -34.14629634 28.54724594 -37.4375 26.4375 C-39.60396028 23.05782196 -39.56288002 20.94016013 -39 17 C-36.9430878 14.07285571 -35.61085873 13.16150101 -32.1484375 12.24609375 C-28.21701957 10.69011072 -26.85403735 8.66834136 -24.25 5.375 C-17.69858053 -2.0726546 -9.25758551 -1.67968705 0 0 Z " fill="#1890AD" transform="translate(152,234)"/>
<path d="M0 0 C2.77558767 0.98687562 4.10600113 1.62986268 5.8125 4 C5.8125 4.66 5.8125 5.32 5.8125 6 C16.3725 6 26.9325 6 37.8125 6 C37.8125 7.65 37.8125 9.3 37.8125 11 C27.2525 11 16.6925 11 5.8125 11 C5.1525 12.32 4.4925 13.64 3.8125 15 C2.8125 16 2.8125 16 -1 16.375 C-4.37987405 16.32645603 -4.97914761 16.17709953 -7.6875 13.875 C-9.47702585 10.44507546 -9.97985586 8.80330813 -9.1875 5 C-6.18700068 1.64229838 -4.58860423 0 0 0 Z " fill="#138FAC" transform="translate(113.1875,207)"/>
<path d="M0 0 C8.25 0 16.5 0 25 0 C25 1.98 25 3.96 25 6 C22.36 6 19.72 6 17 6 C17 13.26 17 20.52 17 28 C14.36 28 11.72 28 9 28 C9 20.74 9 13.48 9 6 C6.03 6 3.06 6 0 6 C0 4.02 0 2.04 0 0 Z " fill="#0A505E" transform="translate(357,332)"/>
<path d="M0 0 C2.64 0 5.28 0 8 0 C8 9.24 8 18.48 8 28 C5.36 28 2.72 28 0 28 C0 18.76 0 9.52 0 0 Z " fill="#074D5C" transform="translate(265,332)"/>
<path d="M0 0 C2.64 0 5.28 0 8 0 C8 9.24 8 18.48 8 28 C5.36 28 2.72 28 0 28 C0 18.76 0 9.52 0 0 Z " fill="#0D5260" transform="translate(174,332)"/>
<path d="M0 0 C3.32274404 2.45594125 4.77618008 3.9256644 5.625 8 C4.77618008 12.0743356 3.32274404 13.54405875 0 16 C-3.0625 16.625 -3.0625 16.625 -6 16 C-9.16196359 13.25408425 -9.91691332 11.59199258 -10.5 7.4375 C-10 4 -10 4 -8.375 1.5625 C-5.24316508 -0.49791771 -3.68455227 -0.6767545 0 0 Z " fill="#F5F8F8" transform="translate(210,338)"/>
<path d="M0 0 C3.0625 0.3125 3.0625 0.3125 5 1.4375 C6.60193488 4.26444391 5.85834319 6.26176777 5.0625 9.3125 C4.0625 10.3125 4.0625 10.3125 0.625 10.5 C-2.9375 10.3125 -2.9375 10.3125 -4.9375 8.3125 C-5.1875 5.3125 -5.1875 5.3125 -4.9375 2.3125 C-2.9375 0.3125 -2.9375 0.3125 0 0 Z " fill="#44B67E" transform="translate(283.9375,269.6875)"/>
<path d="M0 0 C0.625 2.3125 0.625 2.3125 1 5 C0.01 6.485 0.01 6.485 -1 8 C-3.5 8.3125 -3.5 8.3125 -6 8 C-6.66 7.34 -7.32 6.68 -8 6 C-7.75 2.9375 -7.75 2.9375 -7 0 C-4.3333581 -1.33332095 -2.83319697 -0.67102033 0 0 Z " fill="#ECF5F7" transform="translate(158,112)"/>
<path d="M0 0 C3.3 0 6.6 0 10 0 C10.33 1.32 10.66 2.64 11 4 C10 5 10 5 7.71484375 5.09765625 C6.34005859 5.08025391 6.34005859 5.08025391 4.9375 5.0625 C4.01839844 5.05347656 3.09929687 5.04445313 2.15234375 5.03515625 C1.44207031 5.02355469 0.73179687 5.01195312 0 5 C0 3.35 0 1.7 0 0 Z " fill="#F5F8F8" transform="translate(145,349)"/>
<path d="M0 0 C2.125 0.375 2.125 0.375 4 1 C4.625 3.375 4.625 3.375 5 6 C4.34 6.66 3.68 7.32 3 8 C0.375 7.625 0.375 7.625 -2 7 C-2.125 4.625 -2.125 4.625 -2 2 C-1.34 1.34 -0.68 0.68 0 0 Z " fill="#ECF5F7" transform="translate(139,292)"/>
<path d="M0 0 C2.64 0 5.28 0 8 0 C8.5625 1.9375 8.5625 1.9375 9 4 C8 5 8 5 6.15234375 5.09765625 C4.1015625 5.06510417 2.05078125 5.03255208 0 5 C0 3.35 0 1.7 0 0 Z " fill="#FCFDFD" transform="translate(145,338)"/>
<path d="M0 0 C2.125 0.375 2.125 0.375 4 1 C4.625 2.875 4.625 2.875 5 5 C4.34 5.66 3.68 6.32 3 7 C0.875 6.625 0.875 6.625 -1 6 C-1.625 4.125 -1.625 4.125 -2 2 C-1.34 1.34 -0.68 0.68 0 0 Z " fill="#D4E8ED" transform="translate(110,179)"/>
<path d="M0 0 C1.65 0 3.3 0 5 0 C5.33 1.65 5.66 3.3 6 5 C4.34385343 5.38218767 2.67542976 5.71395102 1 6 C0 5 0 5 -0.0625 2.4375 C-0.041875 1.633125 -0.02125 0.82875 0 0 Z " fill="#F3F9FA" transform="translate(120,135)"/>
<path d="M0 0 C2.475 0.495 2.475 0.495 5 1 C4.67 2.32 4.34 3.64 4 5 C2.68 4.67 1.36 4.34 0 4 C0 2.68 0 1.36 0 0 Z " fill="#D6EAEF" transform="translate(110,213)"/>
<path d="M0 0 C1.98 0.495 1.98 0.495 4 1 C3.67 2.32 3.34 3.64 3 5 C1.68 4.67 0.36 4.34 -1 4 C-0.67 2.68 -0.34 1.36 0 0 Z " fill="#D9EBF0" transform="translate(119,252)"/>
</svg>
